:SAMPLES-PER-SECOND 30
:FULLY-SPECIFIED
:DEGREES
484
root  -36.6248 39.1762 -1.86114 3.72919 -82.5218 12.7184
RightUpLeg  -44.0454 -21.2906 10.4535
RightLeg  17.6395 -0.588004 2.01152
RightFoot  6.62342 1.11448 -6.75126
RightToes  5.82063e-011 0 -3.6325e-017
Spine  64.8253 -8.03139 9.64231
Spine1  2.49643 -0.272285 -8.32117
HEad  -43.6845 -7.32844 4.96056
LeftShoulder1  8.91348 -24.0853 -25.9762
LeftArm  -36.3684 -72.6127 -20.7206
LeftForeArm  2.99401 -17.9334 -4.13075
LeftHand  -0.244104 0.0205437 5.32207
RightShoulder  4.86457 13.3196 22.6683
RightArm  -54.2701 68.2443 5.26942
RightForeArm  -27.2751 14.0253 5.41442
RightHand  -1.87314 11.217 -13.4123
LeftUpLeg  -41.3336 8.39135 -7.94884
LeftLeg  20.7298 -1.37334 -0.245062
LeftFoot  3.2232 -0.746572 5.69451
LeftToes  1.45487e-011 -6.19069e-011 1.65092e-011
485
root  -36.731 39.1534 -1.99113 2.20474 -81.9435 15.3029
RightUpLeg  -45.6793 -21.441 11.0095
RightLeg  18.4432 -0.501468 1.51726
RightFoot  6.40589 1.22216 -7.53065
RightToes  5.82063e-011 0 -3.6325e-017
Spine  65.9719 -9.61535 9.59788
Spine1  2.2573 -1.30549 -11.2467
HEad  -44.5599 -6.09369 7.19525
LeftShoulder1  7.22906 -23.6419 -20.0521
LeftArm  -50.2605 -74.8477 -9.47023
LeftForeArm  -2.31402 -18.2763 -3.96709
LeftHand  -0.244104 0.0205437 5.32207
RightShoulder  4.71729 13.6586 21.135
RightArm  -64.121 69.915 -3.10651
RightForeArm  -32.9499 15.8929 5.34279
RightHand  -2.17246 11.3227 -15.3589
LeftUpLeg  -42.4345 8.44622 -8.43518
LeftLeg  20.7344 -1.96636 -0.494126
LeftFoot  3.93116 -0.631496 4.52794
LeftToes  1.45487e-011 -6.19069e-011 1.65092e-011
486
root  -36.8368 39.1233 -2.10164 1.66934 -81.7143 16.6702
RightUpLeg  -46.9889 -21.4581 11.6734
RightLeg  19.1083 -0.225026 1.09848
RightFoot  6.13985 1.27314 -7.98705
RightToes  5.82063e-011 0 -3.6325e-017
Spine  67.3293 -10.0956 9.35535
Spine1  1.32643 -1.61686 -12.5974
HEad  -44.63 -6.00901 8.21414
LeftShoulder1  6.12309 -23.4102 -15.8646
LeftArm  -58.7727 -75.69 -2.70215
LeftForeArm  -8.12881 -18.3044 -3.96801
LeftHand  -0.244104 0.0205437 5.32207
RightShoulder  4.35382 13.4074 19.2726
RightArm  -69.8741 70.0497 -8.47777
RightForeArm  -42.6872 17.5191 5.72672
RightHand  -2.83464 11.7449 -19.3587
LeftUpLeg  -43.316 8.94067 -9.05108
LeftLeg  20.6508 -2.91335 -0.886292
LeftFoot  4.83795 -0.721367 4.85963
LeftToes  1.45487e-011 -6.19069e-011 1.65092e-011
487
root  -36.9274 39.1017 -2.18184 1.82712 -81.8995 17.1758
RightUpLeg  -47.8455 -21.0851 12.2503
RightLeg  19.3875 0.0256537 0.741662
RightFoot  6.00969 1.2637 -7.99274
RightToes  5.82063e-011 0 -3.6325e-017
Spine  68.5833 -10.0933 8.90853
Spine1  0.216761 -1.60275 -13.3803
HEad  -43.7907 -5.95786 8.50289
LeftShoulder1  5.24504 -22.8425 -12.7789
LeftArm  -60.8302 -75.6998 -3.24372
LeftForeArm  -10.6867 -19.0586 -4.11152
LeftHand  -0.244104 0.0205437 5.32207
RightShoulder  3.9794 13.1965 17.2084
RightArm  -71.2832 69.6144 -8.4166
RightForeArm  -50.5386 19.0787 6.06708
RightHand  -3.53618 12.7374 -22.7219
LeftUpLeg  -44.0013 9.31172 -9.37829
LeftLeg  20.6458 -3.05483 -0.944157
LeftFoot  5.18279 -0.926817 6.16211
LeftToes  1.45487e-011 -6.19069e-011 1.65092e-011
488
root  -36.9942 39.0989 -2.26449 1.80536 -81.9573 17.7455
RightUpLeg  -48.4047 -20.6578 12.5062
RightLeg  19.4628 -0.0967126 0.474598
RightFoot  6.05544 1.28824 -8.12862
RightToes  5.82063e-011 0 -3.6325e-017
Spine  69.5429 -10.0625 8.45084
Spine1  -0.936968 -1.76706 -13.7711
HEad  -42.5446 -5.63491 8.56026
LeftShoulder1  4.96988 -22.7349 -11.7169
LeftArm  -61.1155 -74.8828 -4.8429
LeftForeArm  -9.12313 -20.7651 -4.57854
LeftHand  -0.244104 0.0205437 5.32207
RightShoulder  3.80321 13.2322 16.0046
RightArm  -71.4809 69.1877 -5.86396
RightForeArm  -51.5024 20.483 6.24727
RightHand  -3.86984 13.5154 -23.7818
LeftUpLeg  -44.4944 9.08517 -9.28203
LeftLeg  20.6106 -2.60838 -0.756121
LeftFoot  5.24901 -0.956628 6.33713
LeftToes  1.45487e-011 -6.19069e-011 1.65092e-011
489
root  -37.0221 39.1106 -2.37411 1.36765 -81.6357 18.6132
RightUpLeg  -48.8753 -20.6494 12.6416
RightLeg  19.4591 -0.350925 0.371433
RightFoot  6.18368 1.36665 -8.56839
RightToes  5.82063e-011 0 -3.6325e-017
Spine  69.7833 -10.0334 8.29245
Spine1  -1.31687 -1.872 -13.883
HEad  -41.8481 -5.68576 8.72876
LeftShoulder1  5.37473 -23.916 -12.4143
LeftArm  -62.8398 -73.7824 -2.58983
LeftForeArm  -6.78251 -22.4817 -5.06613
LeftHand  -0.244104 0.0205437 5.32207
RightShoulder  3.91198 13.4066 16.4475
RightArm  -72.9418 68.7259 -5.78404
RightForeArm  -48.7621 21.4579 6.37646
RightHand  -3.97098 13.8396 -23.9751
LeftUpLeg  -44.8391 8.7398 -9.2308
LeftLeg  20.4038 -2.80189 -0.824435
LeftFoot  5.80433 -0.888341 5.65399
LeftToes  1.45487e-011 -6.19069e-011 1.65092e-011
490
root  -36.9876 39.1192 -2.49943 1.39633 -81.2202 18.8218
RightUpLeg  -49.1968 -20.9542 12.9053
RightLeg  19.2718 -0.426531 0.473111
RightFoot  6.37708 1.4496 -8.99385
RightToes  5.82063e-011 0 -3.6325e-017
Spine  69.8657 -9.94357 8.09085
Spine1  -1.53287 -2.01576 -13.5878
HEad  -41.3528 -5.71533 8.74233
LeftShoulder1  5.83131 -24.5941 -13.6781
LeftArm  -64.3156 -73.4773 0.914518
LeftForeArm  -6.38101 -23.0382 -5.21698
LeftHand  -0.244104 0.0205437 5.32207
RightShoulder  4.04612 13.9096 16.5567
RightArm  -74.2232 68.2564 -6.5558
RightForeArm  -47.4696 21.6799 6.38135
RightHand  -4.1707 14.0851 -24.8195
LeftUpLeg  -45.1087 8.85615 -9.41815
LeftLeg  20.1297 -3.60629 -1.13639
LeftFoot  6.62133 -0.905002 5.46427
LeftToes  1.45487e-011 -6.19069e-011 1.65092e-011
491
root  -36.8794 39.1096 -2.62331 2.34979 -80.9158 17.8239
RightUpLeg  -49.2579 -21.3139 13.315
RightLeg  18.9295 -0.392295 0.728392
RightFoot  6.72278 1.5499 -9.43018
RightToes  5.82063e-011 0 -3.6325e-017
Spine  69.8459 -9.93926 8.12587
Spine1  -1.57125 -1.92645 -13.7941
HEad  -40.7918 -5.97853 9.04048
LeftShoulder1  5.46901 -24.561 -12.2821
LeftArm  -65.5268 -73.998 1.16747
LeftForeArm  -6.02655 -22.1971 -4.94025
LeftHand  -0.244104 0.0205437 5.32207
RightShoulder  3.97123 13.7879 16.2626
RightArm  -74.6903 68.1011 -7.12065
RightForeArm  -48.6618 21.2495 6.27682
RightHand  -4.44485 14.4171 -25.9524
LeftUpLeg  -45.3117 9.07859 -9.39076
LeftLeg  20.017 -3.97069 -1.27507
LeftFoot  7.13348 -0.925899 5.4218
LeftToes  1.45487e-011 -6.19069e-011 1.65092e-011
492
root  -36.7098 39.084 -2.75073 3.38153 -80.5672 16.492
RightUpLeg  -49.1392 -21.8163 13.6959
RightLeg  18.6111 -0.447664 1.09762
RightFoot  7.18652 1.70179 -10.0956
RightToes  5.82063e-011 0 -3.6325e-017
Spine  69.8131 -9.86654 8.16093
Spine1  -1.62775 -1.89888 -13.6705
HEad  -40.2206 -6.07045 9.15645
LeftShoulder1  4.94755 -24.1009 -10.5721
LeftArm  -66.6099 -74.8555 0.479904
LeftForeArm  -5.49896 -20.7853 -4.38551
LeftHand  -0.244104 0.0205437 5.32207
RightShoulder  3.7842 13.5078 15.4783
RightArm  -74.613 68.1343 -6.98565
RightForeArm  -49.9217 20.572 6.09432
RightHand  -4.62874 14.6508 -26.6729
LeftUpLeg  -45.4698 8.90103 -9.00723
LeftLeg  20.194 -3.94022 -1.2769
LeftFoot  7.69037 -0.847265 4.77444
LeftToes  1.45487e-011 -6.19069e-011 1.65092e-011
493
root  -36.4968 39.0557 -2.89939 3.49863 -80.0347 15.9877
RightUpLeg  -48.9353 -22.483 13.7606
RightLeg  18.2556 -0.716801 1.64604
RightFoot  7.63202 1.85984 -10.7755
RightToes  5.82063e-011 0 -3.6325e-017
Spine  69.6747 -9.69237 8.06547
Spine1  -1.35226 -1.9952 -13.0661
HEad  -40.3487 -5.98774 9.21077
LeftShoulder1  4.58405 -23.5448 -9.46285
LeftArm  -69.1353 -75.8357 1.80036
LeftForeArm  -5.53732 -19.49 -3.77276
LeftHand  -0.244104 0.0205437 5.32207
RightShoulder  3.54968 13.0559 14.5609
RightArm  -75.3281 68.5137 -7.60313
RightForeArm  -50.9193 19.7726 5.8486
RightHand  -4.70278 14.6386 -27.0931
LeftUpLeg  -45.7488 8.85439 -8.95725
LeftLeg  20.5834 -4.59217 -1.57888
LeftFoot  8.92853 -0.817066 4.25574
LeftToes  1.45487e-011 -6.19069e-011 1.65092e-011
494
root  -36.2432 39.0288 -3.07759 2.93823 -79.3671 16.2096
RightUpLeg  -48.5435 -22.8808 13.1844
RightLeg  17.6336 -1.53007 2.41532
RightFoot  8.10892 1.98806 -11.2289
RightToes  5.82063e-011 0 -3.6325e-017
Spine  69.0338 -9.82293 8.7078
Spine1  -0.206264 -1.46639 -14.0028
HEad  -41.5501 -7.12267 10.5528
LeftShoulder1  3.4934 -24.0665 -4.98695
LeftArm  -73.08 -76.5853 2.12597
LeftForeArm  -5.82546 -18.4292 -2.83697
LeftHand  -0.244104 0.0205437 5.32207
RightShoulder  3.21207 11.2222 15.2548
RightArm  -77.1564 69.0765 -10.9938
RightForeArm  -53.5305 18.6851 5.66509
RightHand  -4.69956 14.4281 -27.3486
LeftUpLeg  -46.3247 9.74592 -9.66307
LeftLeg  21.0152 -6.22573 -2.30845
LeftFoot  10.5875 -0.797899 3.79318
LeftToes  1.45487e-011 -6.19069e-011 1.65092e-011
495
root  -35.9447 38.992 -3.27131 2.44894 -78.6191 16.3355
RightUpLeg  -47.8272 -22.6306 11.8389
RightLeg  16.8268 -3.30617 3.28128
RightFoot  8.75599 2.14997 -11.7396
RightToes  5.82063e-011 0 -3.6325e-017
Spine  67.9593 -10.5223 10.4776
Spine1  1.29245 -0.211951 -17.2432
HEad  -43.0183 -9.83229 13.4225
LeftShoulder1  1.33592 -26.0822 4.46024
LeftArm  -75.0751 -76.5326 -2.4954
LeftForeArm  -6.28417 -17.3072 -1.27556
LeftHand  -0.244104 0.0205437 5.32207
RightShoulder  2.84909 8.24418 17.85
RightArm  -78.3619 69.141 -15.5511
RightForeArm  -57.3952 17.264 5.55572
RightHand  -4.60757 14.1714 -27.1744
LeftUpLeg  -47.1716 11.2038 -10.3825
LeftLeg  21.7877 -8.38055 -3.35011
LeftFoot  11.7162 -0.172023 0.508539
LeftToes  1.45487e-011 -6.19069e-011 1.65092e-011
496
root  -35.6096 38.9244 -3.44095 2.17383 -77.8908 16.0421
RightUpLeg  -46.8879 -21.8913 10.003
RightLeg  16.2396 -5.80922 4.08226
RightFoot  9.39416 2.36233 -12.4981
RightToes  5.82063e-011 0 -3.6325e-017
Spine  68.6771 -9.53967 7.92733
Spine1  0.599317 -2.51677 -12.0861
HEad  -42.6626 -6.18998 10.7597
LeftShoulder1  2.05575 -21.2007 0.211275
LeftArm  -74.8678 -77.3641 4.47459
LeftForeArm  -12.9737 -15.0115 -0.886362
LeftHand  -0.244104 0.0205437 5.32207
RightShoulder  2.70936 11.5811 10.6919
RightArm  -75.8644 69.5073 -8.73456
RightForeArm  -57.1411 15.3449 4.4419
RightHand  -4.48129 14.0325 -26.6474
LeftUpLeg  -48.0598 12.0777 -10.0198
LeftLeg  23.854 -10.8117 -4.88142
LeftFoot  11.3253 1.382 -7.30805
LeftToes  1.45487e-011 -6.19069e-011 1.65092e-011
497
root  -35.247 38.8217 -3.53836 2.01584 -77.443 15.3809
RightUpLeg  -45.8273 -20.8928 8.05686
RightLeg  15.8395 -8.29314 4.82945
RightFoot  9.85155 2.51942 -13.0364
RightToes  5.82063e-011 0 -3.6325e-017
Spine  68.843 -9.47175 7.49629
Spine1  0.459732 -3.31444 -10.8571
HEad  -42.6122 -5.19688 10.3082
LeftShoulder1  1.68147 -19.1967 1.17156
LeftArm  -71.2215 -77.7131 3.01949
LeftForeArm  -16.7559 -13.1773 -0.58244
LeftHand  -0.244104 0.0205437 5.32207
RightShoulder  2.75357 13.0523 9.25918
RightArm  -74.0806 69.3728 -6.83424
RightForeArm  -57.3385 13.9057 3.89142
RightHand  -4.38837 13.9663 -26.2069
LeftUpLeg  -48.7776 12.0308 -8.55597
LeftLeg  27.8932 -12.7415 -6.91122
LeftFoot  8.81539 2.65956 -15.2177
LeftToes  1.45487e-011 -6.19069e-011 1.65092e-011
498
root  -34.8435 38.732 -3.55208 1.66815 -77.3711 14.8246
RightUpLeg  -44.5006 -19.4893 5.96297
RightLeg  14.8644 -10.6406 5.63298
RightFoot  10.6016 2.61055 -13.022
RightToes  5.82063e-011 0 -3.6325e-017
Spine  68.6839 -9.24974 7.84401
Spine1  0.71319 -2.96443 -10.4992
HEad  -42.7109 -5.79277 10.1959
LeftShoulder1  1.39554 -19.2309 2.61401
LeftArm  -65.8555 -77.9151 -2.31385
LeftForeArm  -18.4691 -11.9005 -0.284029
LeftHand  -0.244104 0.0205437 5.32207
RightShoulder  2.86977 13.1189 9.98506
RightArm  -72.5532 69.197 -6.91899
RightForeArm  -57.7227 12.7657 3.88135
RightHand  -4.29287 13.7826 -25.8976
LeftUpLeg  -49.2341 11.5791 -7.05316
LeftLeg  33.2838 -11.9117 -7.93219
LeftFoot  5.08514 2.37801 -16.4379
LeftToes  1.45487e-011 -6.19069e-011 1.65092e-011
